<mxfile host="app.diagrams.net" modified="2024-04-23T17:50:52.136Z" agent="Mozilla/5.0 (Windows NT 10.0; Win64; x64) AppleWebKit/537.36 (KHTML, like Gecko) Chrome/120.0.0.0 Safari/537.36" etag="Cf78v9Bo5xvbVC_DoHxV" version="24.2.8" type="github">
  <diagram id="R2lEEEUBdFMjLlhIrx00" name="Page-1">
    <mxGraphModel dx="1887" dy="848" grid="1" gridSize="10" guides="1" tooltips="1" connect="1" arrows="1" fold="1" page="1" pageScale="1" pageWidth="850" pageHeight="1100" math="0" shadow="0" extFonts="Permanent Marker^https://fonts.googleapis.com/css?family=Permanent+Marker">
      <root>
        <mxCell id="0" />
        <mxCell id="1" parent="0" />
        <mxCell id="IkX5d29Hbs1fEHk_xGLz-8" style="edgeStyle=orthogonalEdgeStyle;rounded=0;orthogonalLoop=1;jettySize=auto;html=1;exitX=1;exitY=0.5;exitDx=0;exitDy=0;entryX=0;entryY=0.5;entryDx=0;entryDy=0;" parent="1" source="IkX5d29Hbs1fEHk_xGLz-1" target="IkX5d29Hbs1fEHk_xGLz-6" edge="1">
          <mxGeometry relative="1" as="geometry" />
        </mxCell>
        <mxCell id="IkX5d29Hbs1fEHk_xGLz-10" style="edgeStyle=orthogonalEdgeStyle;rounded=0;orthogonalLoop=1;jettySize=auto;html=1;exitX=0.5;exitY=1;exitDx=0;exitDy=0;entryX=0.5;entryY=0;entryDx=0;entryDy=0;" parent="1" source="IkX5d29Hbs1fEHk_xGLz-1" target="IkX5d29Hbs1fEHk_xGLz-5" edge="1">
          <mxGeometry relative="1" as="geometry" />
        </mxCell>
        <mxCell id="IkX5d29Hbs1fEHk_xGLz-12" style="edgeStyle=orthogonalEdgeStyle;rounded=0;orthogonalLoop=1;jettySize=auto;html=1;exitX=1;exitY=1;exitDx=0;exitDy=0;" parent="1" source="IkX5d29Hbs1fEHk_xGLz-1" target="IkX5d29Hbs1fEHk_xGLz-7" edge="1">
          <mxGeometry relative="1" as="geometry">
            <Array as="points">
              <mxPoint x="250" y="260" />
              <mxPoint x="250" y="310" />
              <mxPoint x="380" y="310" />
            </Array>
          </mxGeometry>
        </mxCell>
        <mxCell id="IkX5d29Hbs1fEHk_xGLz-20" style="edgeStyle=orthogonalEdgeStyle;rounded=0;orthogonalLoop=1;jettySize=auto;html=1;exitX=0.25;exitY=0;exitDx=0;exitDy=0;entryX=0.5;entryY=1;entryDx=0;entryDy=0;" parent="1" source="IkX5d29Hbs1fEHk_xGLz-1" target="IkX5d29Hbs1fEHk_xGLz-22" edge="1">
          <mxGeometry relative="1" as="geometry">
            <mxPoint x="90" y="170" as="targetPoint" />
          </mxGeometry>
        </mxCell>
        <mxCell id="IkX5d29Hbs1fEHk_xGLz-23" style="edgeStyle=orthogonalEdgeStyle;rounded=0;orthogonalLoop=1;jettySize=auto;html=1;exitX=0.5;exitY=0;exitDx=0;exitDy=0;entryX=0.5;entryY=1;entryDx=0;entryDy=0;" parent="1" source="IkX5d29Hbs1fEHk_xGLz-1" target="IkX5d29Hbs1fEHk_xGLz-24" edge="1">
          <mxGeometry relative="1" as="geometry">
            <mxPoint x="155" y="160" as="targetPoint" />
          </mxGeometry>
        </mxCell>
        <mxCell id="IkX5d29Hbs1fEHk_xGLz-25" style="edgeStyle=orthogonalEdgeStyle;rounded=0;orthogonalLoop=1;jettySize=auto;html=1;exitX=0.75;exitY=0;exitDx=0;exitDy=0;entryX=0.5;entryY=1;entryDx=0;entryDy=0;" parent="1" source="IkX5d29Hbs1fEHk_xGLz-1" target="IkX5d29Hbs1fEHk_xGLz-26" edge="1">
          <mxGeometry relative="1" as="geometry">
            <mxPoint x="230" y="150" as="targetPoint" />
          </mxGeometry>
        </mxCell>
        <mxCell id="IkX5d29Hbs1fEHk_xGLz-1" value="Consulta" style="rounded=0;whiteSpace=wrap;html=1;" parent="1" vertex="1">
          <mxGeometry x="80" y="190" width="150" height="70" as="geometry" />
        </mxCell>
        <mxCell id="IkX5d29Hbs1fEHk_xGLz-14" style="edgeStyle=orthogonalEdgeStyle;rounded=0;orthogonalLoop=1;jettySize=auto;html=1;exitX=0.5;exitY=1;exitDx=0;exitDy=0;entryX=0.5;entryY=0;entryDx=0;entryDy=0;" parent="1" source="IkX5d29Hbs1fEHk_xGLz-2" target="IkX5d29Hbs1fEHk_xGLz-16" edge="1">
          <mxGeometry relative="1" as="geometry">
            <mxPoint x="118" y="620" as="targetPoint" />
          </mxGeometry>
        </mxCell>
        <mxCell id="IkX5d29Hbs1fEHk_xGLz-2" value="Paciente" style="rounded=0;whiteSpace=wrap;html=1;" parent="1" vertex="1">
          <mxGeometry x="80" y="515" width="150" height="70" as="geometry" />
        </mxCell>
        <mxCell id="IkX5d29Hbs1fEHk_xGLz-27" style="edgeStyle=orthogonalEdgeStyle;rounded=0;orthogonalLoop=1;jettySize=auto;html=1;exitX=0.5;exitY=1;exitDx=0;exitDy=0;" parent="1" source="IkX5d29Hbs1fEHk_xGLz-3" edge="1">
          <mxGeometry relative="1" as="geometry">
            <mxPoint x="595" y="640" as="targetPoint" />
          </mxGeometry>
        </mxCell>
        <mxCell id="IkX5d29Hbs1fEHk_xGLz-29" style="edgeStyle=orthogonalEdgeStyle;rounded=0;orthogonalLoop=1;jettySize=auto;html=1;exitX=1;exitY=0.5;exitDx=0;exitDy=0;" parent="1" source="IkX5d29Hbs1fEHk_xGLz-3" edge="1">
          <mxGeometry relative="1" as="geometry">
            <mxPoint x="720" y="550" as="targetPoint" />
          </mxGeometry>
        </mxCell>
        <mxCell id="IkX5d29Hbs1fEHk_xGLz-3" value="Médico" style="rounded=0;whiteSpace=wrap;html=1;" parent="1" vertex="1">
          <mxGeometry x="520" y="515" width="150" height="70" as="geometry" />
        </mxCell>
        <mxCell id="5U79YoZBQX03H7CaV3do-1" style="edgeStyle=orthogonalEdgeStyle;rounded=0;orthogonalLoop=1;jettySize=auto;html=1;exitX=0.25;exitY=0;exitDx=0;exitDy=0;entryX=0.5;entryY=1;entryDx=0;entryDy=0;" edge="1" parent="1" source="IkX5d29Hbs1fEHk_xGLz-4" target="5U79YoZBQX03H7CaV3do-3">
          <mxGeometry relative="1" as="geometry">
            <mxPoint x="550" y="150" as="targetPoint" />
          </mxGeometry>
        </mxCell>
        <mxCell id="5U79YoZBQX03H7CaV3do-4" style="edgeStyle=orthogonalEdgeStyle;rounded=0;orthogonalLoop=1;jettySize=auto;html=1;exitX=0.75;exitY=0;exitDx=0;exitDy=0;entryX=0.5;entryY=1;entryDx=0;entryDy=0;" edge="1" parent="1" source="IkX5d29Hbs1fEHk_xGLz-4" target="5U79YoZBQX03H7CaV3do-5">
          <mxGeometry relative="1" as="geometry">
            <mxPoint x="660" y="140" as="targetPoint" />
          </mxGeometry>
        </mxCell>
        <mxCell id="5U79YoZBQX03H7CaV3do-6" style="edgeStyle=orthogonalEdgeStyle;rounded=0;orthogonalLoop=1;jettySize=auto;html=1;exitX=0.5;exitY=0;exitDx=0;exitDy=0;" edge="1" parent="1" source="IkX5d29Hbs1fEHk_xGLz-4">
          <mxGeometry relative="1" as="geometry">
            <mxPoint x="595" y="130" as="targetPoint" />
          </mxGeometry>
        </mxCell>
        <mxCell id="IkX5d29Hbs1fEHk_xGLz-4" value="Exame" style="rounded=0;whiteSpace=wrap;html=1;" parent="1" vertex="1">
          <mxGeometry x="520" y="190" width="150" height="70" as="geometry" />
        </mxCell>
        <mxCell id="IkX5d29Hbs1fEHk_xGLz-11" style="edgeStyle=orthogonalEdgeStyle;rounded=0;orthogonalLoop=1;jettySize=auto;html=1;exitX=0.5;exitY=1;exitDx=0;exitDy=0;entryX=0.5;entryY=0;entryDx=0;entryDy=0;" parent="1" source="IkX5d29Hbs1fEHk_xGLz-5" target="IkX5d29Hbs1fEHk_xGLz-2" edge="1">
          <mxGeometry relative="1" as="geometry" />
        </mxCell>
        <mxCell id="IkX5d29Hbs1fEHk_xGLz-5" value="Requisita" style="rhombus;whiteSpace=wrap;html=1;" parent="1" vertex="1">
          <mxGeometry x="115" y="370" width="80" height="80" as="geometry" />
        </mxCell>
        <mxCell id="IkX5d29Hbs1fEHk_xGLz-9" style="edgeStyle=orthogonalEdgeStyle;rounded=0;orthogonalLoop=1;jettySize=auto;html=1;exitX=1;exitY=0.5;exitDx=0;exitDy=0;entryX=0;entryY=0.5;entryDx=0;entryDy=0;" parent="1" source="IkX5d29Hbs1fEHk_xGLz-6" target="IkX5d29Hbs1fEHk_xGLz-4" edge="1">
          <mxGeometry relative="1" as="geometry" />
        </mxCell>
        <mxCell id="IkX5d29Hbs1fEHk_xGLz-6" value="Feito" style="rhombus;whiteSpace=wrap;html=1;" parent="1" vertex="1">
          <mxGeometry x="340" y="185" width="80" height="80" as="geometry" />
        </mxCell>
        <mxCell id="IkX5d29Hbs1fEHk_xGLz-13" style="edgeStyle=orthogonalEdgeStyle;rounded=0;orthogonalLoop=1;jettySize=auto;html=1;exitX=0.5;exitY=1;exitDx=0;exitDy=0;entryX=0.5;entryY=0;entryDx=0;entryDy=0;" parent="1" source="IkX5d29Hbs1fEHk_xGLz-7" target="IkX5d29Hbs1fEHk_xGLz-3" edge="1">
          <mxGeometry relative="1" as="geometry" />
        </mxCell>
        <mxCell id="IkX5d29Hbs1fEHk_xGLz-7" value="Faz" style="rhombus;whiteSpace=wrap;html=1;" parent="1" vertex="1">
          <mxGeometry x="340" y="370" width="80" height="80" as="geometry" />
        </mxCell>
        <mxCell id="IkX5d29Hbs1fEHk_xGLz-16" value="Número&lt;br&gt;Paciente" style="ellipse;whiteSpace=wrap;html=1;aspect=fixed;" parent="1" vertex="1">
          <mxGeometry x="130" y="630" width="50" height="50" as="geometry" />
        </mxCell>
        <mxCell id="IkX5d29Hbs1fEHk_xGLz-22" value="Numero&lt;div&gt;Consult&lt;/div&gt;" style="ellipse;whiteSpace=wrap;html=1;aspect=fixed;" parent="1" vertex="1">
          <mxGeometry x="60" y="100" width="50" height="50" as="geometry" />
        </mxCell>
        <mxCell id="IkX5d29Hbs1fEHk_xGLz-24" value="Data&lt;br&gt;Consult" style="ellipse;whiteSpace=wrap;html=1;aspect=fixed;" parent="1" vertex="1">
          <mxGeometry x="130" y="100" width="50" height="50" as="geometry" />
        </mxCell>
        <mxCell id="IkX5d29Hbs1fEHk_xGLz-26" value="Diagnós&lt;div&gt;tico&lt;/div&gt;" style="ellipse;whiteSpace=wrap;html=1;aspect=fixed;" parent="1" vertex="1">
          <mxGeometry x="200" y="100" width="50" height="50" as="geometry" />
        </mxCell>
        <mxCell id="IkX5d29Hbs1fEHk_xGLz-28" value="CRM" style="ellipse;whiteSpace=wrap;html=1;aspect=fixed;" parent="1" vertex="1">
          <mxGeometry x="570" y="640" width="50" height="50" as="geometry" />
        </mxCell>
        <mxCell id="IkX5d29Hbs1fEHk_xGLz-30" value="Nome&lt;div&gt;Médico&lt;/div&gt;" style="ellipse;whiteSpace=wrap;html=1;aspect=fixed;" parent="1" vertex="1">
          <mxGeometry x="720" y="525" width="50" height="50" as="geometry" />
        </mxCell>
        <mxCell id="5U79YoZBQX03H7CaV3do-3" value="Número&lt;div&gt;Exame&lt;/div&gt;" style="ellipse;whiteSpace=wrap;html=1;aspect=fixed;" vertex="1" parent="1">
          <mxGeometry x="500" y="90" width="50" height="50" as="geometry" />
        </mxCell>
        <mxCell id="5U79YoZBQX03H7CaV3do-5" value="Data&lt;br&gt;Exame" style="ellipse;whiteSpace=wrap;html=1;aspect=fixed;" vertex="1" parent="1">
          <mxGeometry x="640" y="90" width="50" height="50" as="geometry" />
        </mxCell>
        <mxCell id="5U79YoZBQX03H7CaV3do-7" value="Desc&lt;br&gt;Exame" style="ellipse;whiteSpace=wrap;html=1;aspect=fixed;" vertex="1" parent="1">
          <mxGeometry x="570" y="80" width="50" height="50" as="geometry" />
        </mxCell>
        <mxCell id="5U79YoZBQX03H7CaV3do-8" value="1" style="text;html=1;align=center;verticalAlign=middle;resizable=0;points=[];autosize=1;strokeColor=none;fillColor=none;" vertex="1" parent="1">
          <mxGeometry x="225" y="188" width="30" height="30" as="geometry" />
        </mxCell>
        <mxCell id="5U79YoZBQX03H7CaV3do-9" value="N" style="text;html=1;align=center;verticalAlign=middle;resizable=0;points=[];autosize=1;strokeColor=none;fillColor=none;" vertex="1" parent="1">
          <mxGeometry x="495" y="188" width="30" height="30" as="geometry" />
        </mxCell>
        <mxCell id="5U79YoZBQX03H7CaV3do-10" value="N" style="text;html=1;align=center;verticalAlign=middle;resizable=0;points=[];autosize=1;strokeColor=none;fillColor=none;" vertex="1" parent="1">
          <mxGeometry x="245" y="258" width="30" height="30" as="geometry" />
        </mxCell>
        <mxCell id="5U79YoZBQX03H7CaV3do-11" value="1" style="text;html=1;align=center;verticalAlign=middle;resizable=0;points=[];autosize=1;strokeColor=none;fillColor=none;" vertex="1" parent="1">
          <mxGeometry x="595" y="478" width="30" height="30" as="geometry" />
        </mxCell>
        <mxCell id="5U79YoZBQX03H7CaV3do-12" value="1" style="text;html=1;align=center;verticalAlign=middle;resizable=0;points=[];autosize=1;strokeColor=none;fillColor=none;" vertex="1" parent="1">
          <mxGeometry x="115" y="488" width="30" height="30" as="geometry" />
        </mxCell>
        <mxCell id="5U79YoZBQX03H7CaV3do-13" value="N" style="text;html=1;align=center;verticalAlign=middle;resizable=0;points=[];autosize=1;strokeColor=none;fillColor=none;" vertex="1" parent="1">
          <mxGeometry x="115" y="258" width="30" height="30" as="geometry" />
        </mxCell>
      </root>
    </mxGraphModel>
  </diagram>
</mxfile>
